<svg xmlns="http://www.w3.org/2000/svg" xmlns:xlink="http://www.w3.org/1999/xlink" viewBox="0 0 24.01 24"><defs><style>.cls-1{fill:#fff;}.cls-1,.cls-4{fill-rule:evenodd;}.cls-2{opacity:0.9;}.cls-3{mask:url(#mask);}.cls-4{fill:#3aa4ac;}</style><mask id="mask" x="0" y="0" width="24.01" height="24" maskUnits="userSpaceOnUse"><g id="mask-2"><polygon id="path-1" class="cls-1" points="0 0 24 0 24 24 0 24 0 0"/></g></mask></defs><g id="Layer_2" data-name="Layer 2"><g id="Layer_1-2" data-name="Layer 1"><g id="Dashboard" class="cls-2"><g id="M---Contact-us-Copy"><g id="Header"><g id="Group"><g id="Group-3"><g class="cls-3"><path id="Fill-1" class="cls-4" d="M18.48,21.6A16.09,16.09,0,0,1,2.4,5.52,3.18,3.18,0,0,1,5.92,2.4L7.2,8c-1,.54-2.67,1.11-2.07,2.24a14.21,14.21,0,0,0,8.62,8.65c1.22.59,1.73-1.06,2.29-2.05l5.56,1.27a3.18,3.18,0,0,1-3.12,3.52m5.22-4.91a1.21,1.21,0,0,0-.86-.78l-7.2-1.64a1.22,1.22,0,0,0-1.11.31c-.17.16-.18.17-1,1.66a11.91,11.91,0,0,1-5.84-5.87c1.52-.77,1.53-.77,1.69-.95a1.21,1.21,0,0,0,.31-1.1L8.09,1.2c-.16-.76-1-1-1.65-1.08A4.73,4.73,0,0,0,5.52,0,5.52,5.52,0,0,0,0,5.52,18.5,18.5,0,0,0,18.48,24a5.54,5.54,0,0,0,5.22-7.31"/></g></g></g></g></g></g></g></g></svg>